<svg width="16" height="16" viewBox="0 0 16 16" fill="none" xmlns="http://www.w3.org/2000/svg">
<path d="M7.98319 16C6.7858 16 5.81512 15.0002 5.81512 13.7668V2.23322C5.81512 0.999847 6.7858 0 7.98319 0C9.18058 0 10.1513 0.999847 10.1513 2.23322V13.7668C10.1513 15.0002 9.18058 16 7.98319 16ZM2.05092 10.1126C0.918228 10.1126 0 9.16673 0 8C0 6.83327 0.918228 5.88745 2.05092 5.88745H13.9491C15.0818 5.88745 16 6.83327 16 8C16 9.16673 15.0818 10.1126 13.9491 10.1126H2.05092Z" fill="#C4A6FF"/>
<path d="M13.4806 13.6652C12.6339 14.5373 11.2612 14.5373 10.4145 13.6652L2.49696 5.5097C1.65027 4.63757 1.65028 3.22358 2.49696 2.35145C3.34364 1.47932 4.71639 1.47932 5.56307 2.35145L13.4806 10.5069C14.3273 11.379 14.3273 12.793 13.4806 13.6652ZM5.24424 13.8229C4.44331 14.6479 3.14474 14.6479 2.3438 13.8229C1.54287 12.9979 1.54287 11.6603 2.3438 10.8353L10.7571 2.16921C11.558 1.3442 12.8566 1.3442 13.6575 2.16921C14.4584 2.99421 14.4584 4.33181 13.6575 5.15681L5.24424 13.8229Z" fill="#C4A6FF"/>
</svg>
