<svg width="382" height="448" viewBox="0 0 382 448" fill="none" xmlns="http://www.w3.org/2000/svg">
<path fill-rule="evenodd" clip-rule="evenodd" d="M65.4611 125.467C65.4611 92.1912 78.6799 60.2781 102.21 36.7485C125.739 13.2188 157.652 0 190.928 0C224.204 0 256.117 13.2188 279.647 36.7485C303.176 60.2781 316.395 92.1912 316.395 125.467V190.928C316.395 224.204 303.176 256.117 279.647 279.647C256.117 303.176 224.204 316.395 190.928 316.395C157.652 316.395 125.739 303.176 102.21 279.647C78.6799 256.117 65.4611 224.204 65.4611 190.928V125.467ZM190.928 32.7305C166.333 32.7305 142.745 42.501 125.354 59.8925C107.962 77.2839 98.1916 100.872 98.1916 125.467V190.928C98.1702 214.116 106.837 236.471 122.482 253.585C138.128 270.7 159.617 281.332 182.714 283.386C205.811 285.44 228.839 278.766 247.259 264.681V264.681C275.737 242.905 249.31 207.293 213.461 207.293H212.749C208.408 207.293 204.246 205.569 201.177 202.5C198.107 199.431 196.383 195.269 196.383 190.928C196.383 186.588 198.107 182.425 201.177 179.356C204.246 176.287 208.408 174.563 212.749 174.563H267.299C276.338 174.563 283.665 167.236 283.665 158.198V158.198C283.665 149.159 276.338 141.832 267.299 141.832H212.749C208.408 141.832 204.246 140.108 201.177 137.039C198.107 133.97 196.383 129.807 196.383 125.467C196.383 121.127 198.107 116.964 201.177 113.895C204.246 110.826 208.408 109.102 212.749 109.102H217.609C251.284 109.102 276.275 75.9434 250.446 54.3365V54.3365C233.756 40.375 212.688 32.727 190.928 32.7305ZM16.3653 152.743C20.7056 152.743 24.8682 154.467 27.9373 157.536C31.0064 160.605 32.7305 164.767 32.7305 169.108V190.928C32.7305 211.703 36.8224 232.274 44.7726 251.468C52.7228 270.661 64.3756 288.101 79.0656 302.791C93.7556 317.481 111.195 329.134 130.389 337.084C149.582 345.034 170.153 349.126 190.928 349.126C211.703 349.126 232.274 345.034 251.468 337.084C270.661 329.134 288.101 317.481 302.791 302.791C317.481 288.101 329.134 270.661 337.084 251.468C345.034 232.274 349.126 211.703 349.126 190.928V169.108C349.126 164.767 350.85 160.605 353.919 157.536C356.988 154.467 361.151 152.743 365.491 152.743C369.831 152.743 373.994 154.467 377.063 157.536C380.132 160.605 381.856 164.767 381.856 169.108V190.928C381.857 238.733 363.925 284.799 331.603 320.022C310.61 342.899 284.539 360.121 255.792 370.505C229.302 380.075 207.293 402.787 207.293 430.952V430.952C207.293 435.293 205.569 439.455 202.5 442.524C199.431 445.593 195.269 447.317 190.928 447.317C186.588 447.317 182.425 445.593 179.356 442.524C176.287 439.455 174.563 435.293 174.563 430.952V430.952C174.563 402.787 152.555 380.075 126.065 370.505C97.3176 360.121 71.2463 342.899 50.253 320.022C17.9313 284.799 -0.00110418 238.733 5.09936e-08 190.928V169.108C5.09936e-08 164.767 1.72419 160.605 4.79328 157.536C7.86236 154.467 12.0249 152.743 16.3653 152.743Z" fill="#A258EC"/>
</svg>
