<svg width="490" height="490" viewBox="0 0 490 490" fill="none" xmlns="http://www.w3.org/2000/svg">
<path fill-rule="evenodd" clip-rule="evenodd" d="M333.458 177.844C333.458 201.428 324.09 224.046 307.414 240.722C290.737 257.398 268.12 266.767 244.536 266.767C220.952 266.767 198.334 257.398 181.658 240.722C164.982 224.046 155.613 201.428 155.613 177.844C155.613 154.261 164.982 131.643 181.658 114.967C198.334 98.2905 220.952 88.9219 244.536 88.9219C268.12 88.9219 290.737 98.2905 307.414 114.967C324.09 131.643 333.458 154.261 333.458 177.844ZM288.997 177.844C288.997 189.636 284.313 200.945 275.975 209.283C267.637 217.621 256.328 222.306 244.536 222.306C232.744 222.306 221.435 217.621 213.097 209.283C204.759 200.945 200.075 189.636 200.075 177.844C200.075 166.053 204.759 154.744 213.097 146.406C221.435 138.067 232.744 133.383 244.536 133.383C256.328 133.383 267.637 138.067 275.975 146.406C284.313 154.744 288.997 166.053 288.997 177.844Z" fill="#A258EC"/>
<path fill-rule="evenodd" clip-rule="evenodd" d="M244.537 0C109.486 0 0 109.486 0 244.537C0 379.588 109.486 489.074 244.537 489.074C379.588 489.074 489.074 379.588 489.074 244.537C489.074 109.486 379.588 0 244.537 0ZM44.4613 244.537C44.4613 258.406 45.8736 271.947 48.5618 285.022C57.9281 330.581 115.521 330.364 157.207 309.733C184.806 296.075 215.188 288.978 245.982 288.998C276.38 288.963 306.384 295.87 333.707 309.192C374.963 329.308 431.709 328.845 440.719 283.84C440.985 282.514 441.237 281.185 441.476 279.852C447.079 248.582 445.156 216.427 435.865 186.048C426.574 155.669 410.182 127.938 388.046 105.152C365.911 82.3651 338.667 65.1771 308.57 55.0099C278.472 44.8427 246.386 41.9886 214.967 46.6837C183.548 51.3789 153.698 63.4883 127.888 82.01C102.077 100.532 81.0487 124.933 66.5414 153.196C52.0341 181.458 44.4653 212.769 44.4613 244.537ZM244.537 444.613C223.78 444.646 203.306 441.437 183.811 435.233C143.65 422.453 136.689 370.5 174.068 351.032C196.273 339.466 220.945 333.438 245.982 333.459C270.706 333.438 295.079 339.316 317.075 350.606C354.106 369.613 347.839 420.928 308.39 434.206C287.967 441.08 266.412 444.647 244.537 444.613Z" fill="#A258EC"/>
</svg>
