<svg width="572" height="401" viewBox="0 0 572 401" fill="none" xmlns="http://www.w3.org/2000/svg">
<path d="M371.289 2.38947e-05C423.738 -0.0256361 474.097 20.6163 511.509 57.4762C548.922 94.336 570.392 144.462 571.291 197.047C572.191 249.633 552.447 300.467 516.317 338.591C480.186 376.716 430.563 399.077 378.144 400.855L371.289 400.969H200.032C147.583 400.995 97.2239 380.353 59.8113 343.493C22.3987 306.633 0.928674 256.508 0.0294242 203.922C-0.869826 151.336 18.8738 100.502 55.004 62.3777C91.1343 24.2533 140.758 1.89213 193.177 0.114592L200.003 2.38947e-05H371.289ZM371.289 42.961H200.032C158.858 42.8739 119.296 59 89.8602 87.8685C60.4246 116.737 43.4684 156.04 42.6411 197.319C41.8137 238.598 57.1813 278.552 85.4364 308.583C113.692 338.615 152.575 356.322 193.719 357.894L200.032 358.008H371.289C412.463 358.095 452.025 341.969 481.46 313.101C510.896 284.232 527.852 244.929 528.68 203.65C529.507 162.371 514.139 122.417 485.884 92.3857C457.629 62.3545 418.745 44.6475 377.601 43.0756L371.289 42.961ZM171.412 114.563C177.094 114.563 182.542 116.826 186.56 120.854C190.577 124.882 192.834 130.346 192.834 136.043V136.043C192.834 159.705 212.015 178.947 235.677 178.947V178.947C241.358 178.947 246.807 181.21 250.824 185.238C254.841 189.267 257.098 194.73 257.098 200.427C257.098 206.124 254.841 211.588 250.824 215.616C246.807 219.645 241.358 221.908 235.677 221.908V221.908C212.015 221.908 192.834 241.264 192.834 264.926V264.926C192.834 270.623 190.577 276.087 186.56 280.115C182.542 284.143 177.094 286.407 171.412 286.407C165.731 286.407 160.282 284.143 156.265 280.115C152.248 276.087 149.991 270.623 149.991 264.926V264.926C149.991 241.264 130.809 221.908 107.148 221.908V221.908C104.335 221.908 101.549 221.352 98.9503 220.273C96.3513 219.193 93.9898 217.611 92.0006 215.616C90.0115 213.622 88.4336 211.254 87.357 208.647C86.2805 206.041 85.7264 203.248 85.7264 200.427C85.7264 197.606 86.2805 194.813 87.357 192.207C88.4336 189.601 90.0115 187.233 92.0006 185.238C93.9898 183.244 96.3513 181.661 98.9503 180.582C101.549 179.502 104.335 178.947 107.148 178.947V178.947C130.809 178.947 149.991 159.705 149.991 136.043V136.043C149.991 130.346 152.248 124.882 156.265 120.854C160.282 116.826 165.731 114.563 171.412 114.563ZM364.206 214.805C373.675 214.805 382.756 218.577 389.451 225.291C396.147 232.005 399.908 241.111 399.908 250.606C399.908 260.101 396.147 269.207 389.451 275.921C382.756 282.635 373.675 286.407 364.206 286.407C354.737 286.407 345.656 282.635 338.96 275.921C332.265 269.207 328.503 260.101 328.503 250.606C328.503 241.111 332.265 232.005 338.96 225.291C345.656 218.577 354.737 214.805 364.206 214.805ZM421.33 114.563C430.799 114.563 439.88 118.334 446.575 125.048C453.271 131.762 457.032 140.868 457.032 150.363C457.032 159.858 453.271 168.964 446.575 175.678C439.88 182.392 430.799 186.164 421.33 186.164C411.861 186.164 402.78 182.392 396.084 175.678C389.389 168.964 385.627 159.858 385.627 150.363C385.627 140.868 389.389 131.762 396.084 125.048C402.78 118.334 411.861 114.563 421.33 114.563Z" fill="#A258EC"/>
</svg>
